<?xml version="1.0" encoding="UTF-8" standalone="no"?>
<svg
   width="144"
   height="144"
   viewBox="0 0 38.1 38.1"
   version="1.1"
   id="svg3"
   sodipodi:docname="map-crate-31.svg"
   xml:space="preserve"
   inkscape:version="1.4.2 (f4327f4, 2025-05-13)"
   xmlns:inkscape="http://www.inkscape.org/namespaces/inkscape"
   xmlns:sodipodi="http://sodipodi.sourceforge.net/DTD/sodipodi-0.dtd"
   xmlns="http://www.w3.org/2000/svg"
   xmlns:svg="http://www.w3.org/2000/svg"><defs
     id="defs3"><clipPath
       clipPathUnits="userSpaceOnUse"
       id="clipPath3"><rect
         style="fill:#000000;fill-opacity:1;stroke-width:0.263655"
         id="rect4"
         width="16.43619"
         height="14.84559"
         x="-50.103863"
         y="21.605633"
         ry="0" /></clipPath><clipPath
       id="a"><path
         d="m -45.534,209.35 29.33,16.933 v 33.867 l -29.33,16.933 -29.33,-16.933 v -33.867 z"
         fill-opacity="0.506"
         stroke="#ffffff"
         stroke-width="2.117"
         stroke-opacity="0.502"
         id="path1-7" /></clipPath><clipPath
       id="e"><path
         d="M188 128c0 80-69.756 119.362-69.756 119.362C64 244 8.638 193.922 8.638 128S64 12 118.244 8.638C118.244 8.638 188 48 188 128z"
         fill="#252525"
         fill-opacity=".601"
         stroke-width="12.537"
         id="path2-55" /></clipPath></defs><sodipodi:namedview
     id="namedview3"
     pagecolor="#ffffff"
     bordercolor="#000000"
     borderopacity="0.25"
     inkscape:showpageshadow="2"
     inkscape:pageopacity="0.0"
     inkscape:pagecheckerboard="0"
     inkscape:deskcolor="#d1d1d1"
     inkscape:zoom="5.6458332"
     inkscape:cx="74.656828"
     inkscape:cy="71.645758"
     inkscape:window-width="1920"
     inkscape:window-height="1009"
     inkscape:window-x="-8"
     inkscape:window-y="-8"
     inkscape:window-maximized="1"
     inkscape:current-layer="svg3" /><g
     transform="translate(0 -258.9)"
     stroke="#191919"
     id="g3"><rect
       width="36.142"
       height="36.142"
       x=".979"
       y="259.879"
       rx="0"
       fill="#630"
       stroke-width="1.958"
       id="rect1"
       style="fill:#39144d;fill-opacity:1;stroke-width:1.95791667;stroke-dasharray:none" /><path
       fill="#4d2600"
       stroke-width="2"
       d="m 6.96,265.86 h 24.18 v 24.18 H 6.96 Z"
       id="path1"
       sodipodi:nodetypes="ccccc"
       style="fill:#611f72;fill-opacity:1" /><path
       d="m 6.969,285.108 19.245,-19.213 4.925,-0.037 -0.02,5.133 -19.086,18.991 -5.074,0.056 z"
       fill="#630"
       stroke-width="2"
       id="path3"
       style="fill:#812a98;fill-opacity:1"
       sodipodi:nodetypes="ccccccc" /><path
       d="m 11.892,265.869 19.213,19.245 0.037,4.925 -5.133,-0.02 -18.991,-19.086 -0.056,-5.074 z"
       fill="#630"
       stroke-width="2"
       id="path2"
       style="fill:#812a98;fill-opacity:1"
       sodipodi:nodetypes="ccccccc" /><path
       sodipodi:type="star"
       style="fill:#39144d;fill-opacity:1;stroke-width:1.95791667;stroke-dasharray:none"
       id="path4"
       inkscape:flatsided="true"
       sodipodi:sides="5"
       sodipodi:cx="14.249115"
       sodipodi:cy="13.453816"
       sodipodi:r1="8.151819"
       sodipodi:r2="6.6262722"
       sodipodi:arg1="1.5707963"
       sodipodi:arg2="2.1991149"
       inkscape:rounded="0.05"
       inkscape:randomized="0"
       d="m 14.249115,21.605636 c -0.479152,0 -7.6047746,-5.177068 -7.7528407,-5.632769 -0.1480661,-0.4557 2.5736794,-8.8323723 2.9613214,-9.1140107 0.387642,-0.2816385 9.1953963,-0.2816387 9.5830383,-3e-7 0.387642,0.2816384 3.109388,8.65831 2.961322,9.114011 -0.148066,0.4557 -7.273689,5.632769 -7.752841,5.632769 z"
       inkscape:transform-center-x="-0.24006027"
       inkscape:transform-center-y="0.52339548"
       transform="translate(5.0368965,264.00317)" /><path
       style="fill:#fff00f;fill-opacity:1;fill-rule:nonzero;stroke:#090909;stroke-width:0.816799;stroke-linecap:butt;stroke-linejoin:miter;stroke-miterlimit:4;stroke-dasharray:none;stroke-opacity:1"
       d="m 23.72102,276.40614 -2.635825,1.70015 v -1.31606 c -0.683104,0.40599 -1.404868,0.81839 -1.913973,1.07616 -0.52844,-0.25777 -1.262975,-0.67661 -1.952523,-1.08261 v 1.30158 l -2.603571,-1.67922 c 0,0 0.161117,1.37259 0.805555,2.33924 0.281402,0.3752 1.131954,0.98367 1.798016,1.43065 v 0.6747 c 0.554217,0.57356 1.217864,0.99892 1.952523,0.99892 0.72177,0 1.366201,-0.41245 1.913973,-0.97311 v -0.67881 c 0.670327,-0.44859 1.544394,-1.07118 1.830273,-1.45235 0.644436,-0.96665 0.805552,-2.33924 0.805552,-2.33924 z"
       id="path4550"
       inkscape:connector-curvature="0"
       sodipodi:nodetypes="ccccccccccscccc" /></g></svg>
