<?xml version="1.0" encoding="UTF-8" standalone="no"?>
<svg
   width="125.08749"
   height="128.63425"
   viewBox="0 0 33.096064 34.034478"
   version="1.1"
   id="svg3"
   sodipodi:docname="map-bush-01pu.svg"
   xml:space="preserve"
   inkscape:version="1.4.2 (f4327f4, 2025-05-13)"
   xmlns:inkscape="http://www.inkscape.org/namespaces/inkscape"
   xmlns:sodipodi="http://sodipodi.sourceforge.net/DTD/sodipodi-0.dtd"
   xmlns="http://www.w3.org/2000/svg"
   xmlns:svg="http://www.w3.org/2000/svg"><defs
     id="defs3" /><sodipodi:namedview
     id="namedview3"
     pagecolor="#ffffff"
     bordercolor="#000000"
     borderopacity="0.25"
     inkscape:showpageshadow="2"
     inkscape:pageopacity="0.0"
     inkscape:pagecheckerboard="0"
     inkscape:deskcolor="#d1d1d1"
     inkscape:zoom="2.8020833"
     inkscape:cx="38.899629"
     inkscape:cy="117.2342"
     inkscape:window-width="1920"
     inkscape:window-height="1009"
     inkscape:window-x="-8"
     inkscape:window-y="-8"
     inkscape:window-maximized="1"
     inkscape:current-layer="svg3" /><g
     id="g3"
     style="opacity:0.97662771"
     transform="translate(-2.3279978,-2.0606317)"><path
       d="m 31.586,30.363 c -0.202,0.225 -1.688,0.602 -1.913,0.797 -0.226,0.194 -1.289,1.95 -1.538,2.12 -0.248,0.168 -1.437,-0.25 -1.703,-0.113 -0.267,0.136 -1.296,1.22 -1.571,1.33 -0.276,0.108 -1.535,0.226 -1.826,0.288 -0.292,0.063 -1.515,1.271 -1.812,1.309 -0.297,0.035 -2.184,-0.77 -2.48,-0.775 -0.297,-0.004 -1.258,0.186 -1.55,0.144 -0.294,-0.04 -1.757,-0.451 -2.044,-0.522 -0.287,-0.07 -1.548,0.166 -1.827,0.06 -0.278,-0.106 -1.61,-1.349 -1.869,-1.497 C 11.195,33.357 9.719,33.209 9.476,33.039 9.232,32.869 8.939,31.392 8.722,31.184 8.505,30.975 7.08,30.562 6.888,30.334 6.697,30.104 6.541,28.454 6.367,28.212 6.193,27.969 4.542,27.127 4.407,26.856 4.273,26.584 4.126,25.27 4.03,24.988 3.934,24.705 3.283,23.223 3.214,22.928 3.145,22.635 3.744,21.37 3.716,21.068 3.688,20.767 2.326,19.615 2.328,19.312 c 0,-0.304 0.772,-1.77 0.817,-2.07 0.044,-0.3 -0.444,-2.14 -0.377,-2.434 0.067,-0.293 1.495,-1.06 1.597,-1.347 C 4.467,13.176 4.002,11.401 4.135,11.128 4.268,10.856 6.008,10.076 6.178,9.831 6.348,9.586 6.632,8.051 6.826,7.824 7.019,7.598 8.547,7.548 8.776,7.354 9.005,7.161 9.387,4.978 9.628,4.797 c 0.242,-0.18 2.137,0.414 2.4,0.27 0.264,-0.145 1.26,-1.626 1.534,-1.735 0.274,-0.11 1.537,0.506 1.825,0.436 0.29,-0.07 1.555,-1.68 1.85,-1.707 0.295,-0.025 1.451,1.231 1.747,1.235 0.296,0.003 1.955,-0.976 2.246,-0.931 0.291,0.046 1.096,1.429 1.384,1.496 0.289,0.066 2.247,-0.89 2.524,-0.786 0.277,0.104 0.878,1.813 1.135,1.957 0.258,0.144 1.769,-0.163 2.015,0.005 0.247,0.168 0.871,2.167 1.088,2.37 0.217,0.203 1.985,0.491 2.184,0.712 0.198,0.22 0.045,1.552 0.208,1.8 0.164,0.249 2.139,0.84 2.274,1.109 0.134,0.269 -0.468,1.894 -0.357,2.17 0.111,0.278 1.16,1.71 1.236,2.004 0.077,0.293 -0.22,1.957 -0.189,2.26 0.03,0.303 0.685,1.452 0.692,1.757 0.008,0.304 -0.774,1.755 -0.816,2.053 -0.043,0.297 0.413,1.832 0.338,2.124 -0.074,0.292 -0.753,1.315 -0.863,1.595 -0.11,0.28 -0.364,1.878 -0.503,2.146 -0.14,0.268 -1.186,1.044 -1.347,1.297 -0.16,0.252 -0.446,1.703 -0.647,1.928 z"
       fill="#243c0c"
       id="path1"
       style="fill:#48145f;fill-opacity:1"
       sodipodi:nodetypes="cccccccccccccccccccccccccsccccccccccsccscccccccccscccc" /><path
       d="m 30.28,21.39 c -0.12,0.539 -1.972,1.403 -2.203,1.903 -0.23,0.499 0.697,1.403 0.396,1.84 -0.302,0.436 -1.872,0.857 -2.247,1.246 -0.375,0.387 -0.66,1.894 -1.11,2.19 -0.45,0.296 -1.532,-0.264 -2.018,-0.033 -0.486,0.231 -1.446,1.95 -1.985,2.049 -0.539,0.1 -1.389,-1.342 -1.925,-1.345 -0.537,-0.003 -2.209,1.397 -2.724,1.262 -0.516,-0.134 -0.566,-1.66 -1.08,-1.87 -0.512,-0.209 -2.425,0.284 -2.88,0.004 -0.457,-0.279 -0.688,-1.683 -1.065,-2.085 -0.377,-0.402 -1.68,-0.966 -2,-1.4 -0.32,-0.432 0.498,-1.722 0.294,-2.236 -0.205,-0.514 -1.55,-1.149 -1.63,-1.699 -0.081,-0.55 0.296,-1.773 0.3,-2.308 0.005,-0.534 -0.673,-1.928 -0.58,-2.456 0.093,-0.529 1.316,-0.78 1.517,-1.271 0.202,-0.492 -0.007,-2.16 0.273,-2.63 0.279,-0.468 1.693,-1.06 2.093,-1.413 0.4,-0.354 0.06,-1.236 0.487,-1.548 0.426,-0.313 2.49,0.185 3,0.014 0.512,-0.171 1.065,-1.9 1.597,-2 0.531,-0.1 1.642,1.097 2.176,1.086 0.533,-0.01 1.243,-1.267 1.781,-1.175 0.539,0.093 1.517,1.578 2.022,1.782 0.504,0.205 1.828,0.312 2.258,0.64 0.43,0.326 0.47,1.455 0.86,1.828 0.388,0.372 2.505,0.47 2.787,0.945 0.283,0.474 -0.275,2.072 -0.049,2.562 0.226,0.49 1.544,1.15 1.63,1.699 0.087,0.549 -1.345,1.885 -1.333,2.437 0.011,0.551 1.476,1.443 1.357,1.982 z"
       fill="#3b5b1f"
       id="path2"
       style="fill:#6e268c;fill-opacity:1"
       sodipodi:nodetypes="ccccsscscccscccccccccccccccccscccc" /><path
       d="m 23.277,22.968 c -0.189,0.202 -1.31,0.124 -1.539,0.279 -0.228,0.154 0.093,0.68 -0.145,0.79 -0.237,0.11 -1.061,0.002 -1.319,0.08 -0.257,0.076 -0.797,0.591 -1.065,0.608 -0.268,0.015 -0.514,-0.425 -0.781,-0.438 -0.267,-0.014 -1.207,0.494 -1.466,0.402 -0.259,-0.091 -0.167,-0.944 -0.397,-1.078 -0.23,-0.133 -1.443,0.048 -1.626,-0.14 -0.183,-0.19 0.3,-0.789 0.127,-1.007 -0.173,-0.218 -1.195,-0.554 -1.326,-0.782 -0.132,-0.228 0.04,-0.867 -0.02,-1.136 -0.06,-0.269 -0.347,-0.91 -0.384,-1.174 -0.038,-0.263 0.653,-0.543 0.694,-0.816 0.04,-0.274 -0.352,-0.858 -0.242,-1.115 0.109,-0.257 0.42,-0.802 0.554,-1.028 0.135,-0.227 0.315,-0.984 0.483,-1.189 0.168,-0.205 0.654,0.034 0.86,-0.126 0.207,-0.16 0.637,-0.911 0.871,-1.051 0.235,-0.14 1.022,-0.2 1.283,-0.245 0.26,-0.045 0.165,-0.39 0.423,-0.426 0.258,-0.035 1.162,0.732 1.423,0.793 0.261,0.061 0.942,-0.606 1.196,-0.517 0.255,0.09 0.423,0.882 0.656,1.005 0.234,0.123 0.771,-0.324 0.984,-0.154 0.214,0.17 0.346,1.089 0.515,1.301 0.17,0.212 0.587,0.716 0.684,0.965 0.097,0.249 -0.095,0.64 -0.017,0.894 0.079,0.254 1.065,0.897 1.063,1.173 -0.002,0.277 -0.639,0.853 -0.657,1.119 -0.018,0.266 0.347,0.856 0.242,1.114 -0.105,0.259 -1.14,0.484 -1.27,0.727 -0.13,0.243 0.385,0.97 0.196,1.172 z"
       fill="#80a460"
       id="path3"
       style="fill:#8f27a6;fill-opacity:1"
       sodipodi:nodetypes="sccccccccscsccccsccccsccccsccscss" /></g></svg>
