<?xml version="1.0" encoding="UTF-8" standalone="no"?>
<svg
   width="128"
   height="128"
   version="1.1"
   id="svg1"
   sodipodi:docname="loot-weapon-tec22_dual.svg"
   xml:space="preserve"
   inkscape:version="1.4.2 (f4327f4, 2025-05-13)"
   xmlns:inkscape="http://www.inkscape.org/namespaces/inkscape"
   xmlns:sodipodi="http://sodipodi.sourceforge.net/DTD/sodipodi-0.dtd"
   xmlns="http://www.w3.org/2000/svg"
   xmlns:svg="http://www.w3.org/2000/svg"><defs
     id="defs1" /><sodipodi:namedview
     id="namedview1"
     pagecolor="#ffffff"
     bordercolor="#000000"
     borderopacity="0.25"
     inkscape:showpageshadow="2"
     inkscape:pageopacity="0.0"
     inkscape:pagecheckerboard="0"
     inkscape:deskcolor="#d1d1d1"
     inkscape:zoom="2.2290437"
     inkscape:cx="49.79714"
     inkscape:cy="151.85885"
     inkscape:window-width="1920"
     inkscape:window-height="1009"
     inkscape:window-x="-8"
     inkscape:window-y="-8"
     inkscape:window-maximized="1"
     inkscape:current-layer="svg1" /><g
     id="g4"
     transform="translate(-20.18758,-8.8127833)"><g
       id="g3"
       transform="matrix(0.84329482,-0.84329482,0.84329482,0.84329482,-23.832809,86.210912)"><path
         id="rect1"
         style="display:inline;fill:#fefefe;stroke:#323232;stroke-width:2.83"
         d="M 72.042755,56.457951 H 78.75093 V 91.439896 H 72.042755 Z M 70.947574,41.727 H 79.756 V 52.909391 H 70.947574 Z M 91.574163,29.358 H 102.983 v 4.883 H 91.574163 Z M 32.956,26.010805 H 88.064263 V 38.293196 H 32.956 Z m -6.285676,4.587207 h 3.008848 v 6.783017 h -3.008848 z m 23.63491,20.504808 h 19.108 V 51.186 h -19.108 z M 38.10046,41.727 39.131439,48.143834 28.742343,68.6048 42.779518,70.904677 53.089307,41.727 Z m 22.111247,0.103324 -2.43386,0.0014 c 0,0 0.93974,3.029953 3.124,4.591952 -1.34139,-2.642458 -0.68943,-4.592659 -0.68943,-4.592659 z M 76.27163,19.699954 h 2.881854 l 3.013631,-1.889554 3.047869,-0.07931 2.379183,1.968864 v 2.582575 H 76.116145 Z"
         sodipodi:nodetypes="ccccccccccccccccccccccccccccccccccccccccccccccccc" /><path
         style="display:inline;fill:none;fill-opacity:1;stroke:#323232;stroke-width:2.83;stroke-dasharray:none;stroke-opacity:1"
         d="m 42.304285,26.153861 5.137586,5.474053 40.712527,0.336467"
         id="path3"
         sodipodi:nodetypes="ccc" /></g><g
       id="g2"
       transform="matrix(-0.84329482,-0.84329482,-0.84329482,0.84329482,192.20797,87.556781)"><path
         id="path1"
         style="display:inline;fill:#fefefe;stroke:#323232;stroke-width:2.83"
         d="M 72.042755,56.457951 H 78.75093 V 91.439896 H 72.042755 Z M 70.947574,41.727 H 79.756 V 52.909391 H 70.947574 Z M 91.574163,29.358 H 102.983 v 4.883 H 91.574163 Z M 32.956,26.010805 H 88.064263 V 38.293196 H 32.956 Z m -6.285676,4.587207 h 3.008848 v 6.783017 h -3.008848 z m 23.63491,20.504808 h 19.108 V 51.186 h -19.108 z M 38.10046,41.727 39.131439,48.143834 28.742343,68.6048 42.779518,70.904677 53.089307,41.727 Z m 22.111247,0.103324 -2.43386,0.0014 c 0,0 0.93974,3.029953 3.124,4.591952 -1.34139,-2.642458 -0.68943,-4.592659 -0.68943,-4.592659 z M 76.27163,19.699954 h 2.881854 l 3.013631,-1.889554 3.047869,-0.07931 2.379183,1.968864 v 2.582575 H 76.116145 Z"
         sodipodi:nodetypes="ccccccccccccccccccccccccccccccccccccccccccccccccc" /><path
         style="display:inline;fill:none;fill-opacity:1;stroke:#323232;stroke-width:2.83;stroke-dasharray:none;stroke-opacity:1"
         d="m 42.304285,26.153861 5.137586,5.474053 40.712527,0.336467"
         id="path2"
         sodipodi:nodetypes="ccc" /></g></g></svg>
