<?xml version="1.0" encoding="UTF-8" standalone="no"?>
<svg
   width="148"
   height="148"
   version="1.1"
   id="svg6"
   sodipodi:docname="player-king-scout.svg"
   xml:space="preserve"
   inkscape:version="1.4.2 (f4327f4, 2025-05-13)"
   xmlns:inkscape="http://www.inkscape.org/namespaces/inkscape"
   xmlns:sodipodi="http://sodipodi.sourceforge.net/DTD/sodipodi-0.dtd"
   xmlns:xlink="http://www.w3.org/1999/xlink"
   xmlns="http://www.w3.org/2000/svg"
   xmlns:svg="http://www.w3.org/2000/svg"><sodipodi:namedview
     id="namedview6"
     pagecolor="#ffffff"
     bordercolor="#000000"
     borderopacity="0.25"
     inkscape:showpageshadow="2"
     inkscape:pageopacity="0.0"
     inkscape:pagecheckerboard="0"
     inkscape:deskcolor="#d1d1d1"
     inkscape:zoom="2.7263514"
     inkscape:cx="57.952912"
     inkscape:cy="141.39777"
     inkscape:window-width="1920"
     inkscape:window-height="1009"
     inkscape:window-x="-8"
     inkscape:window-y="-8"
     inkscape:window-maximized="1"
     inkscape:current-layer="svg6" /><defs
     id="defs2"><linearGradient
       id="a"><stop
         offset="0"
         stop-color="#9b9b9b"
         id="stop1" /><stop
         offset="1"
         stop-color="#fff"
         id="stop2" /></linearGradient><linearGradient
       xlink:href="#a"
       id="b"
       gradientUnits="userSpaceOnUse"
       gradientTransform="rotate(-90 94.954 171.268) scale(1.70811)"
       x1="71.621"
       y1="99.306"
       x2="113.125"
       y2="99.306" /><linearGradient
       xlink:href="#a"
       id="c"
       gradientUnits="userSpaceOnUse"
       gradientTransform="rotate(-90 94.954 171.268) scale(1.70811)"
       x1="71.639"
       y1="76.797"
       x2="113.027"
       y2="76.797" /><linearGradient
       xlink:href="#a"
       id="d"
       gradientUnits="userSpaceOnUse"
       gradientTransform="rotate(-90 94.954 171.268) scale(1.70811)"
       x1="98.247"
       y1="107.222"
       x2="131.002"
       y2="107.222" /><linearGradient
       xlink:href="#a"
       id="e"
       gradientUnits="userSpaceOnUse"
       gradientTransform="rotate(-90 94.954 171.268) scale(1.70811)"
       x1="98.05"
       y1="68.832"
       x2="130.747"
       y2="68.832" /><linearGradient
       xlink:href="#a"
       id="f"
       gradientUnits="userSpaceOnUse"
       gradientTransform="rotate(-90 94.954 171.268) scale(1.70811)"
       x1="107.178"
       y1="99.68"
       x2="146.684"
       y2="78.911" /><clipPath
       id="e-0"><path
         d="M188 128c0 80-69.756 119.362-69.756 119.362C64 244 8.638 193.922 8.638 128S64 12 118.244 8.638C118.244 8.638 188 48 188 128z"
         fill="#252525"
         fill-opacity=".601"
         stroke-width="12.537"
         id="path2-9" /></clipPath><linearGradient
       inkscape:collect="always"
       xlink:href="#a"
       id="linearGradient7"
       x1="60.629101"
       y1="103.10036"
       x2="108.71066"
       y2="88"
       gradientUnits="userSpaceOnUse"
       gradientTransform="matrix(0,1.6760232,-1.6760232,0,221.49004,-67.175112)" /></defs><path
     style="fill:url(#linearGradient7);fill-rule:nonzero;stroke:#090909;stroke-width:10.0561;stroke-linecap:butt;stroke-linejoin:miter;stroke-miterlimit:4;stroke-dasharray:none;stroke-opacity:1"
     d="M 130.05412,42.979872 97.602841,63.911558 V 47.708676 C 89.192723,52.707157 80.30663,57.784443 74.038718,60.958052 67.532774,57.784428 58.489459,52.627732 50.000001,47.629268 V 63.653942 L 17.945823,42.979872 c 0,0 1.98359,16.898851 9.917666,28.799958 3.464524,4.619345 13.9362,12.110563 22.136512,17.613532 v 8.30676 c 6.823307,7.061328 14.993881,12.298288 24.038717,12.298288 8.886152,0 16.820164,-5.07797 23.564123,-11.980619 v -8.357126 c 8.252799,-5.523037 19.013999,-13.188012 22.533619,-17.880835 7.93407,-11.901107 9.91766,-28.799958 9.91766,-28.799958 z"
     id="path4550"
     inkscape:connector-curvature="0"
     sodipodi:nodetypes="ccccccccccscccc" /></svg>
